<svg width="600" height="600" viewBox="0 0 600 600" fill="none" xmlns="http://www.w3.org/2000/svg">
<path d="M299.985 0C134.574 0 0 134.574 0 299.985V465.223L69.5354 464.991H299.985C390.988 464.991 464.991 390.959 464.991 299.985C464.991 209.012 390.959 134.98 299.985 134.98C209.012 134.98 134.98 209.012 134.98 299.985V395.455H69.5644V299.985C69.5644 172.925 172.925 69.5354 300.014 69.5354C427.104 69.5354 530.465 172.925 530.465 299.985C530.465 427.046 427.104 530.436 300.014 530.436H204.545V500.585H135.009V599.971H300.014C465.426 599.971 600 465.397 600 299.985C600 134.574 465.397 0 299.985 0ZM299.985 395.455H204.516V299.985C204.516 247.334 247.334 204.516 299.985 204.516C352.637 204.516 395.455 247.334 395.455 299.985C395.455 352.637 352.637 395.455 299.985 395.455Z" fill="url(#paint0_linear_1673_12049)"/>
<path d="M204.516 304.163H134.807V395.455H204.516V304.163Z" fill="url(#paint1_linear_1673_12049)"/>
<defs>
<linearGradient id="paint0_linear_1673_12049" x1="75.8014" y1="96.369" x2="466.789" y2="487.386" gradientUnits="userSpaceOnUse">
<stop stop-color="#15A4D4"/>
<stop offset="1" stop-color="#25DBB1"/>
</linearGradient>
<linearGradient id="paint1_linear_1673_12049" x1="169.647" y1="270.164" x2="169.647" y2="405.377" gradientUnits="userSpaceOnUse">
<stop offset="0.39" stop-color="#15A4D4" stop-opacity="0"/>
<stop offset="1" stop-color="#2590A0"/>
</linearGradient>
</defs>
</svg>
